<?xml version="1.0" encoding="utf-8"?>
<!-- Generator: Adobe Illustrator 24.3.0, SVG Export Plug-In . SVG Version: 6.00 Build 0)  -->
<svg version="1.1" id="Bottle" xmlns="http://www.w3.org/2000/svg" xmlns:xlink="http://www.w3.org/1999/xlink" x="0px" y="0px"
	 viewBox="0 0 400 500" style="enable-background:new 0 0 400 500;" xml:space="preserve">
<style type="text/css">
	.st0{fill:#FFFFFF;}
</style>
<path class="st0" d="M195.9,238.8c0.6-5,2.6-27.9-3.4-47.9c-0.8-2.6-0.9-5.4-0.4-8c2.5-13.7,11.7-58.8,37.5-133.4
	c0,0,2.4-1.3,3.2-3.6c0,0,0.1-3.8-1.5-4.4l2.4-5.2c0,0,8.4-0.6,5.9-11c0,0,0-5.2-24.7-14.2s-28-5-28-5c-8.6,6.3-2.5,12.2-2.5,12.2
	l-1.5,5.5c-1.6-0.5-4,2.4-4,2.4c-0.8,2.3,0.2,4.8,0.2,4.8c-28.1,73.7-50.1,114.2-57,126.3c-1.4,2.4-3.2,4.4-5.5,5.9
	c-17.5,11.6-30.6,30.4-33.4,34.6c-0.4,0.5-0.7,1.1-0.9,1.8L6.9,406.8c-7.1,22.3,48.6,42.5,48.6,42.5s55.7,20.3,64.5-1.3l75.4-207.3
	C195.7,240.1,195.9,239.4,195.9,238.8z"/>
<g id="Title">
	<g>
		<polygon class="st0" points="178.3,323.3 197.9,330.4 201.9,319.6 182.1,312.4 186.2,301.2 208.7,309.3 212.2,298.1 177.9,285.6 
			158.8,338.8 171,343.2 		"/>
		<polygon class="st0" points="229.4,366.2 237.5,344 267.4,319.8 254.2,315 236,330.7 232.3,307 218.4,301.9 225.6,339.7 
			217.5,361.9 		"/>
		<polygon class="st0" points="289.4,388.1 293.6,376.8 270.6,368.4 285.8,326.5 274,322.2 254.6,375.4 		"/>
		<polygon class="st0" points="328.4,342 316.5,337.6 297.1,390.9 332,403.6 336.1,392.2 313.1,383.9 		"/>
		<polygon class="st0" points="388.6,376.6 392.7,365.4 359,353.1 339.6,406.4 373.4,418.7 377.5,407.4 355.6,399.4 359.3,389.2 
			379.1,396.4 382.9,386 363.1,378.8 366.8,368.6 		"/>
		<path class="st0" d="M174.1,392.2c-2.8-2.4-6.3-4.4-10.3-5.8l-19.9-7l-19.4,53.2l19.8,7c4,1.5,7.9,2.2,11.6,2.2
			c3.7,0,7.2-0.8,10.4-2.2c3.2-1.4,6-3.6,8.5-6.4c2.5-2.8,4.5-6.3,5.9-10.4c1.5-4.1,2.2-8,2.1-11.8c-0.1-3.8-0.9-7.2-2.4-10.4
			C179.2,397.4,177,394.6,174.1,392.2z M168.5,418.2c-1,2.7-2.2,4.8-3.7,6.5c-1.5,1.7-3.1,2.9-4.9,3.6c-1.8,0.8-3.7,1.1-5.7,1.1
			c-2-0.1-4.1-0.5-6.1-1.2l-6.9-2.5l11.2-30.9l6.9,2.5c2.1,0.7,3.9,1.7,5.5,3c1.6,1.3,2.8,2.8,3.7,4.5c0.9,1.8,1.4,3.8,1.4,6
			C169.9,413.2,169.5,415.6,168.5,418.2z"/>
		<path class="st0" d="M229.7,411.2l-12,33c-1.2,3.3-2.9,5.4-5.1,6.4c-2.2,1-4.8,1-7.6-0.1c-2.9-1-4.8-2.7-5.9-4.9
			c-1.1-2.2-1-4.9,0.2-8.2l12-33l-11.9-4.3l-12.4,34c-1.2,3.4-1.7,6.5-1.6,9.4c0.2,2.9,0.9,5.6,2.2,8c1.3,2.4,3,4.5,5.3,6.3
			c2.2,1.8,4.8,3.2,7.8,4.3c2.9,1.1,5.8,1.6,8.7,1.7c2.9,0.1,5.6-0.4,8.1-1.5c2.5-1,4.8-2.6,6.8-4.7c2-2.1,3.6-4.9,4.9-8.2l12.4-34
			L229.7,411.2z"/>
		<polygon class="st0" points="269.7,466.5 268.1,425.2 252.7,419.5 233.3,472.8 244.5,476.9 257.2,442 258.4,482 268,485.5 
			294.8,455.2 281.9,490.5 293.6,494.7 313,441.5 296.7,435.6 		"/>
	</g>
</g>
</svg>
